<svg width="100" height="70" viewBox="0 0 100 70" fill="none" xmlns="http://www.w3.org/2000/svg">
<path d="M96.875 63.125H93.75C92.9212 63.125 92.1263 62.7958 91.5403 62.2097C90.9542 61.6237 90.625 60.8288 90.625 60V47.5C90.625 46.6712 90.9542 45.8763 91.5403 45.2903C92.1263 44.7042 92.9212 44.375 93.75 44.375H96.875C97.7038 44.375 98.4987 44.0458 99.0847 43.4597C99.6708 42.8737 100 42.0788 100 41.25C100 40.4212 99.6708 39.6263 99.0847 39.0403C98.4987 38.4542 97.7038 38.125 96.875 38.125H93.75C91.2636 38.125 88.879 39.1127 87.1209 40.8709C85.3627 42.629 84.375 45.0136 84.375 47.5V50.625H77.8125C77.16 47.4596 75.5442 44.5737 73.1866 42.363C70.8291 40.1523 67.8453 38.7251 64.6445 38.2773L50.5625 4.47266C50.0881 3.33334 49.2871 2.35996 48.2603 1.67523C47.2336 0.990496 46.0271 0.625064 44.793 0.625H9.37501C7.7174 0.625 6.12769 1.28348 4.95559 2.45558C3.78349 3.62768 3.12501 5.2174 3.12501 6.875V44.375C1.38396 46.6964 0.323736 49.4568 0.0631431 52.3468C-0.19745 55.2368 0.351881 58.1423 1.64958 60.7377C2.94728 63.3331 4.94208 65.5159 7.41046 67.0414C9.87883 68.567 12.7233 69.375 15.625 69.375H62.5C66.1007 69.3706 69.5898 68.1249 72.3791 65.8479C75.1684 63.5709 77.0873 60.4019 77.8125 56.875H84.375V60C84.375 62.4864 85.3627 64.871 87.1209 66.6291C88.879 68.3873 91.2636 69.375 93.75 69.375H96.875C97.7038 69.375 98.4987 69.0458 99.0847 68.4597C99.6708 67.8737 100 67.0788 100 66.25C100 65.4212 99.6708 64.6263 99.0847 64.0403C98.4987 63.4542 97.7038 63.125 96.875 63.125ZM57.8125 38.125H25V6.875H44.793L57.8125 38.125ZM18.75 6.875V38.125H15.625C13.4735 38.1231 11.3451 38.5688 9.37501 39.4336V6.875H18.75ZM62.5 63.125H15.625C13.1386 63.125 10.754 62.1373 8.99588 60.3791C7.23773 58.621 6.25001 56.2364 6.25001 53.75C6.25001 51.2636 7.23773 48.879 8.99588 47.1209C10.754 45.3627 13.1386 44.375 15.625 44.375H62.5C64.9864 44.375 67.371 45.3627 69.1291 47.1209C70.8873 48.879 71.875 51.2636 71.875 53.75C71.875 56.2364 70.8873 58.621 69.1291 60.3791C67.371 62.1373 64.9864 63.125 62.5 63.125ZM65.625 53.75C65.625 54.5788 65.2958 55.3737 64.7097 55.9597C64.1237 56.5458 63.3288 56.875 62.5 56.875H15.625C14.7962 56.875 14.0014 56.5458 13.4153 55.9597C12.8292 55.3737 12.5 54.5788 12.5 53.75C12.5 52.9212 12.8292 52.1263 13.4153 51.5403C14.0014 50.9542 14.7962 50.625 15.625 50.625H62.5C63.3288 50.625 64.1237 50.9542 64.7097 51.5403C65.2958 52.1263 65.625 52.9212 65.625 53.75Z" fill="#213B4C"/>
</svg>
